<?xml version="1.0" standalone="no"?><svg xmlns="http://www.w3.org/2000/svg" viewBox="0 0 1440 320"><path fill="#bd0900" fill-opacity="1" d="M0,96L34.3,112C68.6,128,137,160,206,186.7C274.3,213,343,235,411,240C480,245,549,235,617,213.3C685.7,192,754,160,823,149.3C891.4,139,960,149,1029,149.3C1097.1,149,1166,139,1234,138.7C1302.9,139,1371,149,1406,154.7L1440,160L1440,320L1405.7,320C1371.4,320,1303,320,1234,320C1165.7,320,1097,320,1029,320C960,320,891,320,823,320C754.3,320,686,320,617,320C548.6,320,480,320,411,320C342.9,320,274,320,206,320C137.1,320,69,320,34,320L0,320Z"></path></svg>